<svg width="100" height="21" viewBox="0 0 100 21" fill="none" xmlns="http://www.w3.org/2000/svg">
<g clip-path="url(#clip0_68_7)">
<path d="M5.96349 11.5585C5.20339 12.3061 4.44527 13.0519 3.66727 13.8171C6.00454 16.1271 8.36929 18.4642 10.8555 20.9215C10.4726 20.9496 10.2664 20.9775 10.0601 20.9778C8.06711 20.9813 6.07196 20.9238 4.08167 20.9975C2.38618 21.0603 0.889074 19.9386 0.353041 18.6698C-0.345837 17.0154 0.0224369 15.5398 1.1967 14.2301C1.32789 14.0837 1.50021 13.9739 1.70188 13.8071C0.67503 12.8893 -0.00815129 11.8569 0.00890775 10.5118C0.0258493 9.17603 0.624849 8.09896 1.46775 7.38885C0.992663 6.42482 0.40798 5.57929 0.148713 4.64441C-0.473399 2.40115 1.4246 0.0216636 3.74939 0.00727017C6.05549 -0.00700636 8.36174 0.00414639 10.6679 0.00414639C10.7178 0.0708512 10.7677 0.137559 10.8177 0.204264C8.38755 2.49186 5.95745 4.77945 3.49988 7.0929C4.45261 7.98119 5.21249 8.68969 6.02413 9.44643C7.74088 7.73033 9.54386 5.92606 11.3491 4.12408C12.5975 2.87805 13.8413 1.62736 15.1071 0.399199C15.3006 0.211519 15.6014 0.0256559 15.8544 0.0230817C18.5172 -0.00402471 21.1803 0.00631945 23.9823 0.167909C23.7718 0.324774 23.5386 0.458942 23.3543 0.64188C20.2322 3.74029 17.125 6.85351 13.9892 9.93801C13.5438 10.3761 13.5539 10.6162 13.9948 11.0498C17.3055 14.3055 20.5897 17.5877 24 20.9787C23.1875 20.9787 22.508 20.9787 21.8285 20.9787C19.9351 20.9789 18.0415 20.9617 16.1486 20.9912C15.6545 20.9989 15.3233 20.8324 14.9847 20.4951C11.9763 17.4973 8.95224 14.515 5.96349 11.5585ZM11.3629 10.41C14.5201 7.30446 17.5404 4.33361 20.5926 1.33145C19.2365 1.33145 17.9196 1.30898 16.6047 1.34823C16.2998 1.35734 15.9307 1.50363 15.7116 1.71213C14.5426 2.82471 13.4148 3.98009 12.2671 5.11499C10.4864 6.87579 8.70121 8.63202 6.89712 10.4107C7.09307 10.6501 7.2172 10.8319 7.37051 10.9847C10.167 13.7719 12.9658 16.5567 15.77 19.3361C15.9018 19.4667 16.0868 19.6283 16.2493 19.6308C17.7064 19.6537 19.164 19.6442 20.6892 19.6442C17.6071 16.5926 14.5949 13.6101 11.3629 10.41ZM7.32001 1.31744C7.39311 1.41574 7.3663 1.34773 7.33895 1.34751C6.21925 1.33871 5.09947 1.32869 3.97978 1.33443C2.67208 1.34113 1.8301 2.02317 1.43263 3.37679C1.13835 4.379 1.62199 5.49602 2.70418 6.17517C4.22667 4.57289 5.76417 2.95481 7.32001 1.31744ZM7.4321 19.639C5.75659 17.9731 4.16097 16.3867 2.52813 14.7633C2.36973 14.9365 2.17284 15.1273 2.00427 15.3404C1.36246 16.1515 1.14946 17.051 1.56402 18.0225C1.93209 18.8851 2.56053 19.5535 3.52838 19.618C4.80604 19.7032 6.09377 19.639 7.4321 19.639ZM2.63153 8.2223C0.995498 9.34482 0.877853 11.5176 2.58027 12.7382C3.35758 11.98 4.12906 11.2275 4.90658 10.4691C4.14076 9.71276 3.38634 8.96772 2.63153 8.2223Z" fill="url(#paint0_linear_68_7)"/>
</g>
<path d="M32.602 17V4.238H33.862V11.654L40.9 4.22H42.286L37.066 9.836L42.556 17H41.134L36.256 10.592L33.862 13.076V17H32.602ZM51.8004 17H50.5764V11.762C50.5764 10.706 50.3904 9.914 50.0184 9.386C49.6464 8.846 49.1124 8.576 48.4164 8.576C47.9604 8.576 47.5044 8.696 47.0484 8.936C46.6044 9.164 46.2084 9.482 45.8604 9.89C45.5244 10.286 45.2844 10.742 45.1404 11.258V17H43.9164V3.86H45.1404V9.746C45.5124 9.05 46.0284 8.498 46.6884 8.09C47.3604 7.67 48.0744 7.46 48.8304 7.46C49.3704 7.46 49.8264 7.556 50.1984 7.748C50.5824 7.94 50.8884 8.222 51.1164 8.594C51.3564 8.954 51.5304 9.38 51.6384 9.872C51.7464 10.352 51.8004 10.898 51.8004 11.51V17ZM53.6545 14.3C53.6545 13.712 53.8225 13.208 54.1585 12.788C54.4945 12.356 54.9565 12.026 55.5445 11.798C56.1445 11.558 56.8345 11.438 57.6145 11.438C58.0705 11.438 58.5445 11.474 59.0365 11.546C59.5285 11.618 59.9665 11.726 60.3505 11.87V11.078C60.3505 10.286 60.1165 9.656 59.6485 9.188C59.1805 8.72 58.5325 8.486 57.7045 8.486C57.2005 8.486 56.7025 8.582 56.2105 8.774C55.7305 8.954 55.2265 9.224 54.6985 9.584L54.2305 8.72C54.8425 8.3 55.4425 7.988 56.0305 7.784C56.6185 7.568 57.2185 7.46 57.8305 7.46C58.9825 7.46 59.8945 7.79 60.5665 8.45C61.2385 9.11 61.5745 10.022 61.5745 11.186V15.524C61.5745 15.692 61.6105 15.818 61.6825 15.902C61.7545 15.974 61.8685 16.016 62.0245 16.028V17C61.8925 17.012 61.7785 17.024 61.6825 17.036C61.5865 17.048 61.5145 17.048 61.4665 17.036C61.1665 17.024 60.9385 16.928 60.7825 16.748C60.6265 16.568 60.5425 16.376 60.5305 16.172L60.5125 15.488C60.0925 16.028 59.5465 16.448 58.8745 16.748C58.2025 17.036 57.5185 17.18 56.8225 17.18C56.2225 17.18 55.6765 17.054 55.1845 16.802C54.7045 16.538 54.3265 16.19 54.0505 15.758C53.7865 15.314 53.6545 14.828 53.6545 14.3ZM59.9365 15.02C60.0685 14.852 60.1705 14.69 60.2425 14.534C60.3145 14.378 60.3505 14.24 60.3505 14.12V12.752C59.9425 12.596 59.5165 12.476 59.0725 12.392C58.6405 12.308 58.2025 12.266 57.7585 12.266C56.8825 12.266 56.1745 12.44 55.6345 12.788C55.0945 13.136 54.8245 13.61 54.8245 14.21C54.8245 14.558 54.9145 14.888 55.0945 15.2C55.2745 15.5 55.5385 15.752 55.8865 15.956C56.2345 16.148 56.6425 16.244 57.1105 16.244C57.6985 16.244 58.2445 16.13 58.7485 15.902C59.2645 15.674 59.6605 15.38 59.9365 15.02ZM64.2731 3.86H65.4971V14.876C65.4971 15.344 65.5811 15.65 65.7491 15.794C65.9171 15.938 66.1211 16.01 66.3611 16.01C66.5771 16.01 66.7931 15.986 67.0091 15.938C67.2251 15.89 67.4111 15.842 67.5671 15.794L67.7831 16.784C67.5551 16.88 67.2731 16.958 66.9371 17.018C66.6131 17.078 66.3311 17.108 66.0911 17.108C65.5391 17.108 65.0951 16.946 64.7591 16.622C64.4351 16.298 64.2731 15.854 64.2731 15.29V3.86ZM69.1234 17V7.622H70.3474V17H69.1234ZM69.1234 5.66V3.86H70.3474V5.66H69.1234ZM72.4134 12.338C72.4134 11.45 72.5934 10.64 72.9534 9.908C73.3254 9.164 73.8354 8.57 74.4834 8.126C75.1314 7.682 75.8694 7.46 76.6974 7.46C77.4774 7.46 78.1734 7.67 78.7854 8.09C79.4094 8.498 79.8954 8.996 80.2434 9.584V3.86H81.4674V15.524C81.4674 15.692 81.5034 15.818 81.5754 15.902C81.6474 15.974 81.7554 16.016 81.8994 16.028V17C81.6594 17.036 81.4734 17.048 81.3414 17.036C81.0894 17.024 80.8674 16.922 80.6754 16.73C80.4834 16.538 80.3874 16.328 80.3874 16.1V15.182C80.0154 15.794 79.5114 16.28 78.8754 16.64C78.2394 17 77.5794 17.18 76.8954 17.18C76.2474 17.18 75.6474 17.048 75.0954 16.784C74.5554 16.52 74.0814 16.16 73.6734 15.704C73.2774 15.248 72.9654 14.732 72.7374 14.156C72.5214 13.568 72.4134 12.962 72.4134 12.338ZM80.2434 13.778V10.88C80.0874 10.448 79.8354 10.058 79.4874 9.71C79.1394 9.35 78.7434 9.068 78.2994 8.864C77.8674 8.648 77.4354 8.54 77.0034 8.54C76.4994 8.54 76.0434 8.648 75.6354 8.864C75.2274 9.068 74.8734 9.35 74.5734 9.71C74.2854 10.07 74.0634 10.478 73.9074 10.934C73.7514 11.39 73.6734 11.858 73.6734 12.338C73.6734 12.842 73.7574 13.322 73.9254 13.778C74.1054 14.234 74.3574 14.642 74.6814 15.002C75.0054 15.35 75.3774 15.62 75.7974 15.812C76.2174 16.004 76.6734 16.1 77.1654 16.1C77.4774 16.1 77.8014 16.04 78.1374 15.92C78.4734 15.8 78.7914 15.638 79.0914 15.434C79.4034 15.218 79.6614 14.966 79.8654 14.678C80.0694 14.39 80.1954 14.09 80.2434 13.778ZM94.3746 13.706C94.3746 14.39 94.1946 14.978 93.8346 15.47C93.4866 15.962 93.0126 16.34 92.4126 16.604C91.8126 16.868 91.1526 17 90.4326 17H84.3306V4.22H90.9186C91.5186 4.22 92.0346 4.382 92.4666 4.706C92.9106 5.018 93.2466 5.426 93.4746 5.93C93.7146 6.422 93.8346 6.938 93.8346 7.478C93.8346 8.102 93.6726 8.69 93.3486 9.242C93.0366 9.782 92.5866 10.184 91.9986 10.448C92.7306 10.664 93.3066 11.06 93.7266 11.636C94.1586 12.2 94.3746 12.89 94.3746 13.706ZM92.3046 13.328C92.3046 12.968 92.2266 12.644 92.0706 12.356C91.9266 12.056 91.7226 11.816 91.4586 11.636C91.2066 11.444 90.9066 11.348 90.5586 11.348H86.3466V15.254H90.4326C90.7926 15.254 91.1106 15.17 91.3866 15.002C91.6746 14.822 91.8966 14.588 92.0526 14.3C92.2206 14 92.3046 13.676 92.3046 13.328ZM86.3466 5.966V9.728H90.0546C90.3906 9.728 90.6906 9.65 90.9546 9.494C91.2186 9.326 91.4286 9.104 91.5846 8.828C91.7406 8.54 91.8186 8.216 91.8186 7.856C91.8186 7.484 91.7466 7.16 91.6026 6.884C91.4586 6.596 91.2606 6.374 91.0086 6.218C90.7686 6.05 90.4866 5.966 90.1626 5.966H86.3466ZM96.4771 17V4.22H98.4931V17H96.4771Z" fill="white"/>
<defs>
<linearGradient id="paint0_linear_68_7" x1="21.4737" y1="-6.90064e-07" x2="-0.157191" y2="20.8368" gradientUnits="userSpaceOnUse">
<stop stop-color="#259CFA"/>
<stop offset="1" stop-color="#B178CB"/>
</linearGradient>
<clipPath id="clip0_68_7">
<rect width="24" height="21" fill="white"/>
</clipPath>
</defs>
</svg>
